<svg width="384" height="384" xmlns="http://www.w3.org/2000/svg" xmlns:xlink="http://www.w3.org/1999/xlink" overflow="hidden"><g><rect x="0" y="0" width="384" height="384" fill="none"/><path d="M303 311 383.787 311" stroke="#5E53FD" stroke-width="2" stroke-miterlimit="8" fill="none" fill-rule="evenodd"/><path d="M0 311 80.787 311" stroke="#5E53FD" stroke-width="2" stroke-miterlimit="8" fill="none" fill-rule="evenodd"/><text fill="#5E53FD" font-family="Quando,Quando_MSFontService,sans-serif" font-weight="400" font-size="88" transform="translate(23.9166 275)">Suyena</text><g><g><g><path d="M168.914 222.926C168.248 221.374 166.363 216.161 164.81 211.392 161.483 201.854 161.594 198.859 165.365 190.097 166.918 186.437 167.472 182.445 167.472 175.679 167.472 163.479 166.696 163.479 162.038 175.79 161.816 176.456 162.259 176.234 163.147 175.568 165.365 173.461 166.363 173.794 166.363 176.788 166.363 180.337 164.256 185.994 158.156 198.526L153.054 209.063 153.608 197.085C154.163 185.439 154.274 184.774 159.708 173.683L165.254 162.259 165.254 143.627 165.254 124.883 161.261 129.541C155.938 135.752 147.176 143.959 142.739 146.954 134.643 152.388 124.55 158.599 123.774 158.599 123.33 158.599 123.33 158.045 123.774 157.268 124.329 156.381 123.996 156.27 122.443 156.936 116.676 159.376 106.583 162.814 103.256 163.59 98.376 164.588 99.4851 162.925 106.14 158.932 110.132 156.603 113.016 155.827 118.783 155.605 125.881 155.383 132.092 153.387 133.645 150.836 134.532 149.394 133.534 149.394 130.539 151.058 127.767 152.499 109.8 155.272 109.8 154.163 109.8 153.719 111.907 152.278 114.347 150.836 117.785 148.95 121.556 148.174 128.543 147.619 135.641 147.065 139.079 146.289 142.074 144.514 146.51 141.741 150.614 137.527 148.95 137.527 148.285 137.527 147.176 138.303 146.289 139.301 144.07 142.074 139.634 143.849 133.09 144.625L126.99 145.29 130.872 141.963C137.305 136.418 140.632 134.976 145.845 135.752 150.392 136.529 150.725 136.307 155.05 131.427 164.588 120.558 166.252 112.905 164.256 90.0578 162.814 72.7561 161.261 69.207 153.387 65.4361 150.281 63.8834 146.732 61.7761 145.512 60.667 144.292 59.5579 140.743 58.0052 137.527 57.118 134.31 56.2307 131.427 55.2325 130.983 54.8998 129.652 53.458 143.627 55.6761 145.845 57.2289 147.065 58.1161 149.172 59.5579 150.614 60.5561 154.718 63.5507 154.274 61.7761 149.727 56.7852 145.29 52.0162 145.845 50.2416 150.503 54.5671 153.498 57.3398 154.163 55.1216 151.169 51.9053 150.17 50.7962 149.727 49.5762 150.059 49.2434 150.392 48.7998 151.723 49.6871 152.943 51.1289 160.263 59.8907 160.928 60.5561 160.263 58.0052 159.819 56.3416 160.596 53.7907 162.481 50.4634 164.145 47.6907 165.143 44.6962 164.81 43.8089 164.478 42.9216 164.588 42.1453 165.143 42.1453 167.139 42.1453 167.472 47.6907 165.808 51.018 163.923 54.678 163.59 59.8907 165.254 59.8907 165.919 59.8907 166.363 59.1143 166.363 58.1161 166.363 57.118 167.361 55.1216 168.581 53.5689 169.801 52.0162 170.799 49.4653 170.799 48.0234 170.799 46.4707 171.243 45.6944 171.908 46.0271 173.572 47.0253 173.239 51.3507 171.354 53.9016 170.467 55.0107 169.69 56.6743 169.69 57.5616 169.69 59.8907 176.234 53.458 178.23 49.3544L179.783 46.0271 179.228 50.2416C178.674 54.4562 179.339 55.3434 181.668 53.0143 182.334 52.3489 183.221 52.0162 183.665 52.3489 183.997 52.7925 182.888 53.9016 181.114 55.0107 179.45 56.1198 177.01 57.8943 175.79 59.0034 174.348 60.2234 171.243 61.1107 167.361 61.3325 159.598 61.7761 157.601 62.8852 160.818 65.1034 162.038 65.9907 163.923 68.6525 164.921 71.0925 165.808 73.4215 167.028 75.4179 167.472 75.4179 167.916 75.4179 169.136 73.7543 170.134 71.8688 171.132 69.8725 172.463 67.4325 173.018 66.5452 173.572 65.6579 174.238 63.9943 174.57 62.8852 174.903 61.7761 176.788 60.1125 178.674 59.0034 180.67 58.0052 183.887 55.6761 185.994 53.9016 187.99 52.1271 189.987 51.018 190.319 51.3507 190.763 51.6834 189.543 53.2362 187.879 54.7889 183.554 58.4489 185.107 59.447 190.541 56.6743 192.981 55.4543 197.196 54.1234 199.857 53.7907L204.626 53.2362 200.745 54.8998C198.637 55.7871 195.643 57.3398 194.09 58.227 192.537 59.1143 189.543 60.667 187.436 61.6652 185.328 62.6634 182.334 63.9943 180.781 64.7707 173.905 67.987 170.245 79.5215 171.021 95.4924 171.354 103.811 171.908 105.918 174.792 110.576 179.894 118.894 188.767 123.885 203.517 126.88 206.623 127.545 206.734 127.545 204.626 125.881 201.41 123.552 192.981 115.012 193.425 114.569 194.534 113.46 204.072 119.116 207.732 122.998 209.95 125.549 212.612 127.545 213.61 127.545 214.719 127.545 213.056 124.994 209.174 120.669 205.736 116.787 203.406 113.57 203.961 113.349 205.957 112.683 211.946 116.565 218.601 122.665 224.368 127.989 227.363 129.874 227.363 128.1 227.363 127.767 223.925 123.996 219.71 119.56 215.385 115.123 212.168 111.352 212.39 111.13 213.61 109.91 226.697 118.561 232.243 124.218L238.565 130.872 224.368 130.429C211.725 129.985 210.505 130.096 213.499 131.427 215.385 132.314 217.714 132.979 218.823 133.09 221.817 133.09 229.359 137.305 236.235 142.518 239.563 145.179 243.999 148.063 245.995 149.061 247.881 150.059 249.544 151.279 249.544 151.834 249.544 153.276 226.919 143.849 222.039 140.41 219.821 138.858 215.828 136.085 213.277 134.199 208.952 131.094 197.75 127.656 199.192 129.985 199.525 130.429 202.408 132.203 205.514 133.756 213.943 138.081 224.035 145.401 224.035 147.287 224.035 148.507 224.812 148.729 227.252 148.285 230.579 147.619 232.465 148.396 245.995 156.048 248.657 157.601 250.654 158.932 250.432 159.265 249.877 159.819 225.699 150.614 219.71 147.619 214.054 144.625 213.721 146.067 219.377 149.616 227.141 154.607 244.997 168.027 245.108 168.914 245.108 170.134 230.357 162.148 220.597 155.716 212.834 150.614 205.736 143.516 199.968 135.087 197.639 131.649 194.534 128.876 190.874 126.99 187.768 125.438 185.217 124.55 185.217 124.994 185.217 125.66 186.548 127.212 198.97 139.856L205.07 146.067 197.085 142.185C192.648 140.078 187.99 137.305 186.659 136.085 183.887 133.645 183.221 128.654 185.55 128.654 186.216 128.654 183.221 125.105 178.674 120.78 174.238 116.565 170.356 113.238 170.134 113.46 168.692 114.79 181.779 138.192 187.325 144.403 189.987 147.398 191.428 148.063 197.861 148.729 204.405 149.394 206.401 150.17 214.608 155.605 224.368 162.148 240.006 175.125 239.23 176.012 238.897 176.234 233.574 173.128 227.252 169.025 220.708 164.699 212.39 160.374 207.954 158.932 203.739 157.49 198.416 154.828 196.087 153.054 193.757 151.169 191.872 150.059 191.872 150.725 191.872 153.054 200.412 158.599 207.288 160.707 213.166 162.481 215.717 164.034 220.154 168.581 223.148 171.576 225.255 174.127 224.701 174.127 223.37 174.127 209.506 166.474 205.403 163.368 202.297 161.039 201.854 160.928 202.186 162.703 202.297 163.812 204.183 166.918 206.179 169.69 210.172 175.014 219.045 192.759 218.157 193.647 217.492 194.312 209.839 185.107 205.957 179.117 204.405 176.677 202.297 171.687 201.188 168.027 199.636 162.481 198.194 160.263 191.872 154.052 184.996 147.176 181.557 142.518 172.463 127.878L169.136 122.554 168.803 139.745C168.581 149.172 168.803 159.043 169.136 161.483 169.801 166.141 173.018 171.798 180.227 180.559 182.777 183.776 185.107 188.877 187.436 195.976 189.21 201.854 190.541 206.845 190.319 207.177 189.987 207.399 188.767 205.181 187.436 202.186 186.216 199.303 182.888 194.09 180.227 190.652 175.901 185.107 172.019 178.119 170.245 172.574 169.136 168.803 168.359 171.576 169.468 175.568 170.245 178.119 170.134 181.336 169.468 184.552 168.581 188.767 168.803 190.874 170.799 196.974 172.685 202.63 173.128 205.514 172.463 209.506 172.019 212.279 171.243 217.159 170.91 220.154 170.134 225.255 170.023 225.477 168.914 222.926ZM168.359 199.968C168.248 195.643 168.027 195.199 167.139 197.085 166.141 199.303 166.807 205.181 168.027 205.181 168.359 205.181 168.47 202.852 168.359 199.968Z" stroke="#5E53FD" stroke-width="0.110909" fill="#5E53FD" transform="matrix(1 0 0 -1.00357 26.0912 227.857)"/><path d="M177.565 206.401C172.352 197.75 170.578 192.87 170.688 186.992 170.688 183.997 170.91 181.336 171.132 181.114 171.354 180.892 173.461 183.776 175.79 187.547 179.007 192.87 180.116 195.976 180.892 202.63 181.557 207.177 181.779 211.17 181.557 211.503 181.225 211.725 179.45 209.396 177.565 206.401Z" stroke="#5E53FD" stroke-width="0.110909" fill="#5E53FD" transform="matrix(1 0 0 -1.00357 26.0912 227.857)"/><path d="M144.958 203.85C145.29 201.854 146.51 196.974 147.619 192.981 148.729 188.988 149.394 185.661 149.172 185.328 148.95 185.107 146.621 189.21 143.959 194.534 133.867 215.052 137.749 200.856 150.614 170.688 154.828 160.707 158.599 151.723 158.932 150.836 160.263 147.287 159.598 156.603 158.045 163.923 156.492 171.798 148.729 198.859 146.51 204.405 144.958 208.508 144.07 208.176 144.958 203.85Z" stroke="#5E53FD" stroke-width="0.110909" fill="#5E53FD" transform="matrix(1 0 0 -1.00357 26.0912 227.857)"/><path d="M201.299 195.088C196.419 188.545 190.43 179.339 187.99 174.57 183.887 166.363 178.674 149.172 180.005 147.841 180.337 147.509 181.779 149.949 183.11 153.276 186.437 161.261 199.303 185.994 205.625 196.752 208.508 201.521 210.726 205.736 210.505 206.179 210.283 206.623 206.179 201.632 201.299 195.088Z" stroke="#5E53FD" stroke-width="0.110909" fill="#5E53FD" transform="matrix(1 0 0 -1.00357 26.0912 227.857)"/><path d="M126.436 203.628C126.436 203.296 129.319 196.974 132.869 189.432 139.301 175.79 151.723 154.718 152.721 155.605 153.498 156.492 147.619 169.579 141.187 181.336 132.092 197.75 126.436 206.29 126.436 203.628Z" stroke="#5E53FD" stroke-width="0.110909" fill="#5E53FD" transform="matrix(1 0 0 -1.00357 26.0912 227.857)"/><path d="M119.781 199.636C119.781 197.196 129.652 180.448 134.976 173.683 144.625 161.594 141.409 169.358 129.43 187.436 122 198.526 119.781 201.299 119.781 199.636Z" stroke="#5E53FD" stroke-width="0.110909" fill="#5E53FD" transform="matrix(1 0 0 -1.00357 26.0912 227.857)"/><path d="M187.325 186.105C183.443 180.559 179.339 174.348 178.341 172.463 176.123 168.138 172.685 152.167 173.239 147.841 173.461 145.512 174.348 147.065 176.677 154.718 179.561 163.812 188.877 183.776 194.312 192.759 195.532 194.645 196.087 196.308 195.421 196.308 194.867 196.308 191.207 191.761 187.325 186.105Z" stroke="#5E53FD" stroke-width="0.110909" fill="#5E53FD" transform="matrix(1 0 0 -1.00357 26.0912 227.857)"/><path d="M225.477 186.992C217.825 182.223 215.717 180.337 210.394 173.018 207.843 169.69 205.07 166.252 204.183 165.365 203.185 164.588 203.628 164.699 205.181 165.698 206.734 166.696 210.505 168.692 213.499 170.134 216.605 171.576 220.154 173.905 221.485 175.125 224.59 178.119 233.241 190.763 232.132 190.652 231.688 190.652 228.583 188.988 225.477 186.992Z" stroke="#5E53FD" stroke-width="0.110909" fill="#5E53FD" transform="matrix(1 0 0 -1.00357 26.0912 227.857)"/><path d="M115.345 188.988C115.345 185.883 144.403 153.941 145.845 155.494 146.621 156.27 139.523 165.365 129.43 176.456 122.332 184.441 115.345 190.541 115.345 188.988Z" stroke="#5E53FD" stroke-width="0.110909" fill="#5E53FD" transform="matrix(1 0 0 -1.00357 26.0912 227.857)"/><path d="M93.1633 187.879C93.1633 186.659 97.7105 179.45 100.261 176.456 103.034 173.35 115.567 164.034 116.232 164.588 117.452 165.919 108.136 176.899 101.149 182.445 96.8233 185.883 93.1633 188.323 93.1633 187.879Z" stroke="#5E53FD" stroke-width="0.110909" fill="#5E53FD" transform="matrix(1 0 0 -1.00357 26.0912 227.857)"/><path d="M112.129 183.332C116.676 178.119 124.661 170.799 125.881 170.799 126.436 170.799 123.441 174.348 119.227 178.563 111.796 185.994 106.583 189.543 112.129 183.332Z" stroke="#5E53FD" stroke-width="0.110909" fill="#5E53FD" transform="matrix(1 0 0 -1.00357 26.0912 227.857)"/><path d="M196.974 174.459C194.09 170.91 191.096 165.587 190.208 162.592 187.325 153.165 188.212 151.945 193.203 157.934 195.976 161.261 203.406 179.561 202.408 180.559 202.186 180.781 199.746 178.008 196.974 174.459Z" stroke="#5E53FD" stroke-width="0.110909" fill="#5E53FD" transform="matrix(1 0 0 -1.00357 26.0912 227.857)"/><path d="M110.465 177.232C118.34 163.812 128.21 154.274 125.105 163.036 123.885 166.585 115.678 175.457 111.796 177.565 110.021 178.563 109.689 178.452 110.465 177.232Z" stroke="#5E53FD" stroke-width="0.110909" fill="#5E53FD" transform="matrix(1 0 0 -1.00357 26.0912 227.857)"/><path d="M96.8233 171.465C101.149 167.361 104.698 164.921 107.914 164.145 110.465 163.368 114.79 161.816 117.452 160.707 124.329 157.601 124.44 158.932 117.674 162.481 114.458 164.034 109.356 167.028 106.14 169.025 102.923 171.021 98.1542 173.794 95.3814 175.125L90.3906 177.565 96.8233 171.465Z" stroke="#5E53FD" stroke-width="0.110909" fill="#5E53FD" transform="matrix(1 0 0 -1.00357 26.0912 227.857)"/><path d="M124.329 169.136C127.212 162.259 131.649 155.827 135.53 153.054 138.081 151.169 140.299 149.949 140.521 150.17 141.741 151.39 135.752 161.039 131.649 164.145 123.996 170.245 123.885 170.356 124.329 169.136Z" stroke="#5E53FD" stroke-width="0.110909" fill="#5E53FD" transform="matrix(1 0 0 -1.00357 26.0912 227.857)"/><path d="M80.9633 158.71C80.9633 156.381 127.767 137.305 129.319 138.969 130.207 139.745 119.781 145.956 112.572 148.95 103.145 152.832 80.9633 159.708 80.9633 158.71Z" stroke="#5E53FD" stroke-width="0.110909" fill="#5E53FD" transform="matrix(1 0 0 -1.00357 26.0912 227.857)"/><path d="M146.399 153.276C146.399 149.061 151.834 139.745 154.385 139.745 156.159 139.745 155.272 146.178 152.943 149.061 150.503 152.167 146.399 154.828 146.399 153.276Z" stroke="#5E53FD" stroke-width="0.110909" fill="#5E53FD" transform="matrix(1 0 0 -1.00357 26.0912 227.857)"/><path d="M81.5179 148.95C84.0688 146.51 109.91 136.307 118.007 134.643 122.665 133.645 126.88 133.09 127.101 133.423 127.323 133.645 124.661 135.419 121.112 137.305 115.678 140.189 107.138 142.85 82.627 149.394 81.1851 149.838 80.7415 149.616 81.5179 148.95Z" stroke="#5E53FD" stroke-width="0.110909" fill="#5E53FD" transform="matrix(1 0 0 -1.00357 26.0912 227.857)"/><path d="M77.6361 140.078C77.6361 139.634 83.4033 137.416 90.5015 135.309L103.478 131.427 91.9433 130.872C79.6324 130.318 80.187 129.763 95.6033 127.545 100.261 126.88 105.918 126.658 108.247 127.101 110.909 127.545 112.129 127.434 111.685 126.769 111.241 126.103 109.356 125.327 107.47 124.883 103.921 124.218 91.056 112.683 92.3869 111.352 93.3851 110.354 103.256 116.454 108.912 121.556 113.681 125.992 119.116 128.654 120.447 127.212 120.78 126.88 119.227 125.549 116.787 124.44 112.018 121.889 108.025 117.785 104.254 111.685 99.9287 104.365 102.923 105.696 112.018 115.012 121.001 124.329 126.436 128.654 126.436 126.658 126.436 125.992 125.549 124.883 124.44 124.329 123.33 123.774 121.001 121.112 119.227 118.45 117.452 115.789 114.347 111.574 112.24 109.023 110.243 106.361 109.023 104.254 109.689 104.254 110.243 104.254 111.13 104.809 111.463 105.363 111.907 106.029 114.901 108.58 118.34 111.02 122.554 114.125 125.105 117.12 126.658 120.447 128.876 125.66 132.203 127.989 138.969 129.209 141.187 129.652 143.072 130.539 143.072 131.094 143.072 131.759 141.963 131.981 140.632 131.538 139.19 131.205 133.978 130.539 129.098 130.207 120.558 129.541 119.56 129.652 112.461 132.869 103.921 136.75 98.8196 138.081 89.836 139.19 86.5088 139.523 82.4051 140.078 80.7415 140.41 78.967 140.743 77.6361 140.632 77.6361 140.078Z" stroke="#5E53FD" stroke-width="0.110909" fill="#5E53FD" transform="matrix(1 0 0 -1.00357 26.0912 227.857)"/><path d="M242.114 139.745C236.679 138.636 231.688 136.196 229.581 133.534 228.139 131.87 228.472 131.759 234.017 132.536 240.006 133.312 245.663 135.641 250.099 139.079 252.317 140.743 252.206 140.743 249.544 140.743 247.992 140.632 244.665 140.189 242.114 139.745Z" stroke="#5E53FD" stroke-width="0.110909" fill="#5E53FD" transform="matrix(1 0 0 -1.00357 26.0912 227.857)"/><path d="M250.099 133.534C243.112 131.205 241.448 130.096 234.239 122.443 229.914 117.674 226.475 113.681 226.697 113.46 227.806 112.35 238.786 119.116 244.221 124.329 247.437 127.434 251.984 130.872 254.203 132.092 257.974 133.978 260.857 136.639 258.75 136.307 258.306 136.196 254.424 134.976 250.099 133.534Z" stroke="#5E53FD" stroke-width="0.110909" fill="#5E53FD" transform="matrix(1 0 0 -1.00357 26.0912 227.857)"/><path d="M133.423 121.556C132.869 120.669 128.876 115.9 124.44 111.02 120.114 106.14 116.454 101.925 116.454 101.592 116.454 99.8178 120.78 101.26 123.33 104.032 127.212 108.247 136.639 123.109 135.309 123.109 134.754 123.109 133.867 122.443 133.423 121.556Z" stroke="#5E53FD" stroke-width="0.110909" fill="#5E53FD" transform="matrix(1 0 0 -1.00357 26.0912 227.857)"/><path d="M134.976 114.014C127.101 104.365 122.443 95.3814 125.216 95.3814 126.325 95.3814 140.078 117.563 139.412 118.34 139.079 118.561 137.083 116.676 134.976 114.014Z" stroke="#5E53FD" stroke-width="0.110909" fill="#5E53FD" transform="matrix(1 0 0 -1.00357 26.0912 227.857)"/><path d="M247.548 107.914C241.67 97.4887 239.119 91.056 239.785 87.9506 240.006 86.8415 242.446 91.1669 245.33 97.5996 252.206 113.016 254.092 117.563 253.537 117.563 253.315 117.563 250.654 113.238 247.548 107.914Z" stroke="#5E53FD" stroke-width="0.110909" fill="#5E53FD" transform="matrix(1 0 0 -1.00357 26.0912 227.857)"/><path d="M180.337 111.02C176.234 105.474 172.463 97.7105 173.461 96.8233 173.683 96.4905 174.903 98.4869 176.123 101.149 177.232 103.811 180.005 108.247 182.223 111.241 184.441 114.125 185.883 116.454 185.328 116.454 184.774 116.454 182.556 114.014 180.337 111.02Z" stroke="#5E53FD" stroke-width="0.110909" fill="#5E53FD" transform="matrix(1 0 0 -1.00357 26.0912 227.857)"/><path d="M77.1924 111.463C77.9688 106.583 82.2942 89.5033 83.6251 85.9542 85.1778 81.8506 77.747 91.3887 74.8633 97.0451 73.4215 100.151 72.2015 101.703 72.0906 100.594 72.0906 97.7105 75.0852 92.276 79.8542 86.5088 84.2906 81.0742 86.5088 77.4142 86.5088 75.307 86.5088 74.4197 85.7324 74.6415 84.2906 75.9724 83.1815 76.9706 82.2942 78.1906 82.4051 78.6342 82.516 78.967 80.5197 81.407 77.9688 84.0688 71.5361 90.3906 71.9797 87.8397 78.5233 80.6306 84.7342 73.7543 85.5106 73.1997 86.9524 73.9761 87.5069 74.3088 87.6178 74.087 87.1742 73.4215 86.7306 72.7561 87.5069 70.6488 88.8378 68.7634 94.0505 61.887 89.7251 64.6597 81.0742 73.8652 76.1942 79.1888 72.0906 82.8488 72.0906 81.9615 72.0906 81.0742 77.1924 75.4179 83.4033 69.3179 95.0487 58.0052 98.376 54.3452 97.156 54.3452 96.1578 54.3452 81.8506 66.5452 79.0779 69.7615 76.6379 72.5343 75.6397 71.9797 77.5252 68.9852 77.9688 68.0979 78.0797 65.8797 77.6361 63.9943 77.1924 61.6652 77.5252 59.5579 78.5233 57.8943 81.296 53.5689 79.2997 54.1234 75.5288 58.7816 72.3124 62.8852 72.0906 64.9925 75.1961 61.887 76.1942 60.8889 76.527 60.8889 76.527 61.7761 76.527 64.1052 69.6506 82.0724 68.5415 82.7379 67.3216 83.5142 67.8761 81.0742 70.9815 73.1997 72.0906 70.427 73.3106 67.2106 73.7543 65.9907 74.1979 64.7707 72.5343 65.9907 69.9834 68.7634 67.5434 71.5361 65.4361 73.1997 65.4361 72.4234 65.4361 71.647 66.9888 69.3179 68.8743 67.0997 70.9815 64.7707 71.7579 63.2179 70.8706 63.2179 69.8725 63.107 69.9834 62.7743 71.3143 61.9979 72.3124 61.4434 73.1997 60.2234 73.1997 59.447 73.1997 57.4507 79.2997 51.9053 80.4088 52.9034 80.8524 53.458 80.9633 53.1252 80.5197 52.3489 80.076 51.5725 80.2979 50.1307 81.1851 49.1325 81.9615 48.1344 82.516 47.0253 82.516 46.6925 82.4051 46.3598 82.627 46.138 83.0706 46.138 83.4033 46.2489 84.956 44.8071 86.5088 42.9216L89.2815 39.3726 84.8451 42.0344C82.4051 43.5871 77.9688 46.4707 75.0852 48.578 72.2015 50.6853 69.4288 52.0162 68.9852 51.5725 67.987 50.6853 72.4234 47.2471 80.8524 42.478 84.2906 40.4817 86.6197 38.818 85.9542 38.818 85.3997 38.818 87.396 37.2653 90.6124 35.4908 97.156 31.7199 99.4851 29.169 95.2705 30.2781 93.8287 30.7217 90.3906 31.0544 87.6178 31.0544 82.8488 31.0544 82.4051 31.3871 78.3015 37.1544 75.8615 40.4817 73.6433 43.0326 73.4215 42.8107 72.867 42.1453 77.747 32.9399 79.1888 31.8308 79.9651 31.1653 79.6324 31.0544 78.4124 31.4981 77.1924 31.8308 74.9743 32.3853 73.4215 32.7181 70.8706 33.2726 70.7597 33.1617 72.6452 32.2744 73.8652 31.7199 75.8615 30.9435 77.0815 30.4999 78.4124 30.0562 78.7451 29.5017 77.9688 29.0581 77.3033 28.6144 80.5197 28.1708 85.1778 28.0599 89.9469 27.8381 96.2687 27.1726 99.2632 26.5072 102.369 25.8417 106.805 25.509 109.245 25.7308L113.681 26.0635 107.027 29.3908C102.923 31.4981 99.3742 34.1599 97.9323 36.4889 96.4905 38.5962 95.3814 39.5944 95.3814 38.9289 95.3814 36.2671 97.7105 33.2726 101.814 30.4999 104.032 28.9472 105.363 27.7272 104.698 27.7272 103.034 27.7272 96.4905 32.829 94.3833 35.7126 93.496 37.1544 92.6087 39.7053 92.4978 41.3689 92.276 44.6962 91.3887 46.2489 90.2796 45.2507 89.9469 44.8071 90.1687 43.3653 90.9451 41.9235 92.1651 39.4835 92.0542 39.4835 89.836 42.1453 88.616 43.698 86.6197 46.0271 85.3997 47.4689 83.6251 49.6871 78.7451 63.107 78.7451 66.1016 78.7451 66.5452 80.6306 65.2143 82.9597 63.107 89.1706 57.118 101.371 48.3562 100.594 50.2416 100.261 51.2398 99.596 53.7907 99.1523 56.0089 98.7087 58.4489 98.0433 59.5579 97.5996 58.7816 97.0451 57.8943 96.6014 58.1161 96.2687 59.5579 95.8251 61.1107 97.7105 63.7725 102.812 68.8743 110.243 76.1942 115.234 82.9597 109.8 78.1906 108.358 76.9706 104.809 73.3106 101.703 70.0943 98.5978 66.8779 95.936 64.4379 95.7142 64.6597 95.4924 64.8816 96.1578 67.2106 97.0451 69.8725 97.9323 72.5343 98.4869 74.8633 98.1542 75.1961 97.0451 76.3052 94.1615 67.2106 94.716 64.7707 95.7142 60.7779 93.6069 61.5543 92.1651 65.6579 91.056 68.6525 91.2778 69.4288 93.3851 71.7579 94.716 73.0888 95.4924 74.5306 95.1596 74.8633 94.8269 75.1961 93.9396 74.7524 93.1633 73.7543 92.3869 72.867 91.2778 72.0906 90.7233 72.0906 89.0597 72.0906 86.2869 79.9651 87.0633 82.8488 87.5069 84.6233 87.2851 85.2888 86.6197 84.8451 85.9542 84.5124 86.176 86.2869 87.0633 88.8378 87.9506 91.3887 88.616 94.716 88.616 96.3796 88.5051 98.4869 87.9506 97.5996 86.7306 93.3851L85.0669 87.6178 81.8506 99.9287C78.5233 113.016 75.8615 119.449 77.1924 111.463Z" stroke="#5E53FD" stroke-width="0.110909" fill="#5E53FD" transform="matrix(1 0 0 -1.00357 26.0912 227.857)"/><path d="M140.632 109.578C135.419 101.814 132.869 96.7123 131.87 92.276 131.205 89.2815 131.316 88.8378 132.536 89.836 134.31 91.2778 145.623 114.347 144.958 115.012 144.625 115.234 142.739 112.794 140.632 109.578Z" stroke="#5E53FD" stroke-width="0.110909" fill="#5E53FD" transform="matrix(1 0 0 -1.00357 26.0912 227.857)"/><path d="M143.072 102.036C137.638 90.8342 136.418 86.5088 138.636 86.5088 139.301 86.5088 139.745 87.1742 139.745 87.9506 139.745 88.616 142.074 94.4942 144.736 100.816 147.509 107.138 149.505 112.572 149.283 112.905 148.95 113.127 146.178 108.247 143.072 102.036Z" stroke="#5E53FD" stroke-width="0.110909" fill="#5E53FD" transform="matrix(1 0 0 -1.00357 26.0912 227.857)"/><path d="M217.381 109.023C213.721 104.92 208.176 94.2724 209.063 93.2742 209.839 92.6087 209.617 92.3869 216.161 102.923 219.377 108.025 221.706 112.461 221.485 112.683 221.263 113.016 219.377 111.352 217.381 109.023Z" stroke="#5E53FD" stroke-width="0.110909" fill="#5E53FD" transform="matrix(1 0 0 -1.00357 26.0912 227.857)"/><path d="M203.739 108.912C200.523 105.585 190.43 84.8451 191.096 82.8488 191.539 81.407 195.643 87.9506 200.412 97.9323 202.408 102.147 205.181 107.027 206.401 108.801 209.285 112.905 207.621 113.016 203.739 108.912Z" stroke="#5E53FD" stroke-width="0.110909" fill="#5E53FD" transform="matrix(1 0 0 -1.00357 26.0912 227.857)"/><path d="M189.987 107.249C188.101 105.363 185.328 101.703 183.665 99.2632 180.005 93.7178 180.005 94.9378 183.665 102.147 185.217 105.252 186.216 108.025 185.883 108.358 184.885 109.356 180.559 99.4851 180.227 95.4924 180.005 93.2742 179.561 90.3906 179.117 89.0597 178.674 87.6178 178.785 86.5088 179.339 86.5088 181.114 86.5088 183.665 90.0578 185.661 95.2705 186.659 97.9323 189.099 102.369 190.874 105.03 195.088 111.02 194.534 112.129 189.987 107.249Z" stroke="#5E53FD" stroke-width="0.110909" fill="#5E53FD" transform="matrix(1 0 0 -1.00357 26.0912 227.857)"/><path d="M195.976 105.585C192.537 102.036 184.108 86.176 184.108 83.4033 184.108 82.4051 185.772 84.2906 187.768 87.6178 192.537 95.6033 199.636 108.69 199.303 108.69 199.081 108.69 197.639 107.249 195.976 105.585Z" stroke="#5E53FD" stroke-width="0.110909" fill="#5E53FD" transform="matrix(1 0 0 -1.00357 26.0912 227.857)"/><path d="M223.592 106.25C222.483 104.587 221.817 102.591 222.039 101.925 222.261 101.26 223.37 101.925 224.479 103.589 225.477 105.252 226.254 107.138 225.921 107.914 225.699 108.58 224.701 107.803 223.592 106.25Z" stroke="#5E53FD" stroke-width="0.110909" fill="#5E53FD" transform="matrix(1 0 0 -1.00357 26.0912 227.857)"/><path d="M149.727 101.26C148.396 97.8214 147.065 93.3851 146.843 91.4996 146.51 89.7251 145.956 86.9524 145.734 85.3997 145.29 83.6251 145.512 83.0706 146.178 83.736 147.619 85.1778 153.498 106.361 152.721 107.138 152.388 107.47 151.058 104.809 149.727 101.26Z" stroke="#5E53FD" stroke-width="0.110909" fill="#5E53FD" transform="matrix(1 0 0 -1.00357 26.0912 227.857)"/><path d="M206.956 103.034C203.628 99.1523 201.41 95.0487 200.301 90.9451 199.857 89.3924 202.076 92.0542 205.181 96.9342 211.059 106.029 211.946 109.023 206.956 103.034Z" stroke="#5E53FD" stroke-width="0.110909" fill="#5E53FD" transform="matrix(1 0 0 -1.00357 26.0912 227.857)"/><path d="M238.897 100.372C236.457 95.2705 236.125 93.1633 236.679 87.8397 237.012 84.4015 237.345 80.7415 237.345 79.8542 237.566 77.9688 239.119 79.1888 249.544 88.7269 255.312 94.0505 253.426 93.496 246.55 87.9506 243.888 85.8433 241.781 84.5124 241.781 85.0669 241.67 85.5106 241.115 84.8451 240.228 83.4033 239.008 81.0742 238.786 81.6288 238.675 88.7269 238.454 94.6051 239.008 97.9323 240.561 101.592 241.781 104.254 242.557 106.472 242.225 106.472 241.892 106.472 240.339 103.7 238.897 100.372Z" stroke="#5E53FD" stroke-width="0.110909" fill="#5E53FD" transform="matrix(1 0 0 -1.00357 26.0912 227.857)"/><path d="M157.047 102.923C154.939 93.2742 154.052 87.396 154.496 86.8415 155.272 86.176 157.047 92.9415 158.045 100.151 158.71 105.363 157.934 107.47 157.047 102.923Z" stroke="#5E53FD" stroke-width="0.110909" fill="#5E53FD" transform="matrix(1 0 0 -1.00357 26.0912 227.857)"/><path d="M247.659 95.7142C241.337 86.176 241.226 85.7324 244.443 88.7269 247.881 91.8324 253.426 100.705 252.539 101.592 252.206 101.925 249.988 99.2632 247.659 95.7142Z" stroke="#5E53FD" stroke-width="0.110909" fill="#5E53FD" transform="matrix(1 0 0 -1.00357 26.0912 227.857)"/><path d="M232.465 98.4869C231.245 93.8287 231.799 84.2906 233.463 80.076 235.126 76.3052 235.015 75.6397 232.797 69.7615L230.468 63.4398 225.366 73.5324C222.594 79.0779 220.154 83.1815 219.932 82.516 219.71 81.8506 221.485 77.0815 224.035 71.9797 227.363 64.9925 228.472 61.5543 228.361 57.7834L228.139 52.6816 227.363 56.5634C226.586 60.2234 226.475 60.1125 226.475 54.8998 226.475 48.7998 225.255 42.3671 224.146 41.7017 223.703 41.3689 221.485 46.138 219.156 52.238 216.716 58.338 214.608 62.9961 214.386 62.7743 213.499 61.9979 217.381 49.798 220.265 44.0307L223.037 38.7071 220.486 34.1599 217.936 29.6126 217.27 33.938C216.716 38.2635 211.614 53.0143 209.617 56.4525 208.176 58.8925 208.286 58.1161 210.172 51.018 212.39 42.8107 212.501 42.9216 207.177 45.4725 203.406 47.358 202.963 47.358 205.07 45.8053 206.512 44.6962 209.617 42.0344 212.057 39.8162 215.496 36.4889 216.272 35.0471 216.272 31.4981 216.272 28.2817 215.939 27.6163 215.163 28.8363 214.608 29.7235 214.054 31.4981 213.943 32.7181 213.943 33.938 213.61 34.2708 213.277 33.6053 213.056 32.829 213.388 30.389 214.165 28.0599L215.496 23.9563 217.936 26.8399C222.039 31.609 225.366 33.1617 234.572 34.2708 239.452 34.8253 243.555 35.158 243.777 34.9362 243.999 34.8253 240.006 33.2726 234.905 31.609 222.039 27.5053 219.599 26.5072 219.599 25.3981 219.599 23.069 229.803 26.1744 239.008 31.2762 250.321 37.598 263.963 46.3598 263.963 47.2471 263.963 47.8016 261.301 47.1362 256.199 45.2507 254.092 44.4744 253.87 44.0307 255.09 43.2544 256.864 42.1453 249.212 39.7053 236.79 37.2653 232.465 36.4889 227.363 34.9362 225.255 33.938 223.259 32.829 221.928 32.4962 222.372 33.1617 222.705 33.8271 226.143 35.9344 229.914 37.9308 233.685 39.8162 237.455 42.1453 238.232 43.1435 239.008 44.1416 239.452 44.2526 239.008 43.4762 238.343 42.2562 250.21 48.1344 255.201 51.4616 259.083 54.1234 267.623 62.2198 267.068 62.6634 266.735 62.9961 264.295 61.4434 261.634 59.2252 255.09 53.7907 243.999 46.2489 243.334 46.9144 243.001 47.1362 246.217 49.9089 250.321 53.0143 257.086 58.0052 261.966 63.2179 259.859 63.2179 259.526 63.2179 256.199 60.667 252.65 57.5616 245.663 51.4616 244.886 51.4616 248.546 57.3398 249.877 59.447 250.654 61.4434 250.21 61.7761 249.877 62.1088 251.874 64.8816 254.646 67.987 263.186 77.5252 262.521 78.6342 253.315 69.9834 237.899 55.3434 237.012 54.3452 245.441 60.2234 247.215 61.3325 248.879 62.1088 249.212 61.6652 249.544 61.3325 248.99 60.7779 247.992 60.3343 246.994 60.0016 246.55 59.2252 246.772 58.6707 247.548 57.5616 244.554 51.4616 242.003 48.578 240.672 47.0253 240.672 46.5816 241.781 46.5816 242.89 46.5816 243.001 46.2489 242.114 45.3616 241.448 44.6962 240.339 44.4744 239.674 44.8071 238.232 45.6944 241.115 52.7925 244.332 56.3416 245.552 57.6725 246.217 58.7816 245.884 58.7816 244.221 58.7816 235.57 52.9034 231.355 48.9107 228.361 46.138 227.252 45.5835 227.917 47.1362 228.361 48.3562 229.47 52.4598 230.246 56.3416 232.132 65.1034 233.685 67.987 240.006 74.8633 242.779 77.9688 245.108 80.9633 245.108 81.5179 244.997 82.1833 243.334 80.8524 241.337 78.6342L237.566 74.5306 235.126 81.8506C233.352 87.396 233.019 90.5015 233.574 95.0487 234.239 101.038 233.685 102.923 232.465 98.4869ZM237.677 48.578C234.794 43.2544 226.032 35.3799 224.59 36.7108 224.035 37.2653 239.23 54.3452 240.228 54.3452 240.561 54.3452 239.452 51.7943 237.677 48.578Z" stroke="#5E53FD" stroke-width="0.110909" fill="#5E53FD" transform="matrix(1 0 0 -1.00357 26.0912 227.857)"/><path d="M91.1669 92.0542C89.1706 88.8378 87.7287 85.9542 88.0615 85.7324 88.8378 84.956 95.6033 95.3814 95.1596 96.6014 94.9378 97.2669 93.1633 95.2705 91.1669 92.0542Z" stroke="#5E53FD" stroke-width="0.110909" fill="#5E53FD" transform="matrix(1 0 0 -1.00357 26.0912 227.857)"/><path d="M252.206 86.2869C245.774 73.4215 241.448 65.8797 239.674 64.327 237.788 62.5525 232.797 55.898 231.355 53.2362 229.359 49.5762 243.112 64.1052 245.774 68.5415 248.657 73.1997 256.421 92.0542 255.534 92.0542 255.312 92.0542 253.759 89.3924 252.206 86.2869Z" stroke="#5E53FD" stroke-width="0.110909" fill="#5E53FD" transform="matrix(1 0 0 -1.00357 26.0912 227.857)"/><path d="M99.9287 82.7379C95.1596 76.4161 94.1615 74.087 97.156 76.6379 99.596 78.6342 105.696 87.6178 105.03 88.2833 104.809 88.5051 102.48 86.0651 99.9287 82.7379Z" stroke="#5E53FD" stroke-width="0.110909" fill="#5E53FD" transform="matrix(1 0 0 -1.00357 26.0912 227.857)"/><path d="M93.2742 80.6306C91.8324 77.0815 90.9451 73.8652 91.3887 73.5324 92.276 72.5343 96.7123 82.9597 96.2687 85.1778 96.0469 86.2869 94.8269 84.4015 93.2742 80.6306Z" stroke="#5E53FD" stroke-width="0.110909" fill="#5E53FD" transform="matrix(1 0 0 -1.00357 26.0912 227.857)"/><path d="M229.137 73.7543C228.694 72.2015 228.915 70.0943 229.47 68.9852 230.357 67.5434 230.579 68.0979 230.69 71.8688 230.69 77.1924 230.135 77.8579 229.137 73.7543Z" stroke="#5E53FD" stroke-width="0.110909" fill="#5E53FD" transform="matrix(1 0 0 -1.00357 26.0912 227.857)"/><path d="M109.8 60.7779C106.029 53.9016 103.256 49.2434 103.7 50.4634 104.143 51.6834 105.252 54.7889 106.14 57.3398 107.027 60.0016 107.581 62.6634 107.249 63.4398 107.027 64.2161 106.14 62.6634 105.252 59.8907 103.7 54.8998 103.7 54.8998 103.034 58.227 102.48 60.7779 102.258 60.0016 102.147 55.2325 102.036 48.4671 100.816 46.6925 97.8214 48.9107 96.8233 49.5762 97.7105 48.578 99.9287 46.4707 102.147 44.3635 105.141 40.9253 106.472 38.818 108.025 36.4889 104.476 39.3726 97.9323 45.9162 91.7215 51.9053 86.176 56.6743 85.3997 56.3416 84.0688 55.898 114.68 25.509 116.565 25.509 117.12 25.509 117.563 26.3963 117.563 27.6163 117.563 28.7253 118.34 31.4981 119.227 33.6053 122.11 40.5926 120.89 40.8144 117.674 33.938L114.569 27.3944 112.24 31.2762C110.909 33.4944 109.8 35.8235 109.8 36.7108 109.8 37.4871 111.796 41.5907 114.347 45.8053 119.227 54.1234 119.56 57.3398 114.68 50.0198 111.574 45.2507 110.021 43.9198 112.018 47.5798 112.572 48.7998 113.127 50.4634 113.127 51.2398 113.016 53.9016 109.91 47.2471 109.134 42.8107 108.469 38.7071 108.358 38.5962 106.916 40.4817 104.365 43.9198 105.141 47.2471 111.574 60.0016 114.901 66.767 117.452 72.5343 117.12 72.867 116.898 73.0888 113.57 67.7652 109.8 60.7779Z" stroke="#5E53FD" stroke-width="0.110909" fill="#5E53FD" transform="matrix(1 0 0 -1.00357 26.0912 227.857)"/><path d="M221.374 64.2161C220.486 57.7834 221.928 49.5762 224.257 48.1344 225.145 47.5798 225.255 48.3562 224.59 50.5743 224.146 52.3489 223.37 57.5616 223.037 62.1088L222.261 70.427 221.374 64.2161Z" stroke="#5E53FD" stroke-width="0.110909" fill="#5E53FD" transform="matrix(1 0 0 -1.00357 26.0912 227.857)"/><path d="M124.772 45.3616C123.774 43.5871 122.665 39.4835 122.332 36.2671 122 33.0508 121.223 29.6126 120.669 28.5035 120.114 27.3944 119.892 26.1744 120.225 25.8417 121.112 24.9544 131.87 33.1617 133.312 35.8235 134.532 38.1526 134.421 38.1526 132.314 36.378 128.654 33.0508 127.989 34.1599 131.427 37.7089 133.201 39.5944 134.089 41.0362 133.423 41.0362 131.981 41.0362 127.323 34.9362 128.1 34.1599 128.432 33.8271 127.656 32.7181 126.436 31.609 122.665 28.2817 122.776 30.4999 126.658 37.8199 131.316 46.9144 131.427 47.0253 129.874 46.138 129.209 45.6944 127.656 43.4762 126.436 41.258 123.885 36.378 123.552 37.8199 125.881 44.2526 127.767 49.5762 127.212 50.2416 124.772 45.3616Z" stroke="#5E53FD" stroke-width="0.110909" fill="#5E53FD" transform="matrix(1 0 0 -1.00357 26.0912 227.857)"/><path d="M65.4361 44.3635C65.4361 42.9216 71.9797 35.6017 74.6415 34.1599 75.8615 33.4944 74.4197 35.8235 71.5361 39.2617 65.8797 45.8053 65.4361 46.138 65.4361 44.3635Z" stroke="#5E53FD" stroke-width="0.110909" fill="#5E53FD" transform="matrix(1 0 0 -1.00357 26.0912 227.857)"/><path d="M205.07 38.818C207.51 35.4908 209.617 32.2744 209.617 31.7199 209.617 31.1653 206.401 33.6053 202.408 37.1544 195.643 43.0326 192.759 44.3635 197.085 39.7053 198.416 38.2635 198.637 37.3762 197.75 36.8217 196.308 35.9344 201.077 24.3999 202.852 24.3999 204.737 24.3999 204.294 26.3963 201.299 30.8326 196.974 37.1544 197.972 37.2653 205.181 30.9435 208.841 27.7272 212.168 25.509 212.612 25.8417 213.832 27.1726 208.397 37.4871 204.294 41.258 200.523 44.918 200.523 44.8071 205.07 38.818Z" stroke="#5E53FD" stroke-width="0.110909" fill="#5E53FD" transform="matrix(1 0 0 -1.00357 26.0912 227.857)"/><path d="M151.501 37.0435C148.396 33.1617 140.189 26.6181 138.414 26.6181 137.97 26.6181 139.523 28.3926 141.963 30.7217 144.514 32.9399 147.065 35.8235 147.73 37.0435 148.396 38.3744 146.621 37.1544 143.738 34.3817 138.858 29.6126 136.972 29.2799 140.299 33.7162 141.187 34.9362 141.963 36.7108 141.963 37.598 141.852 38.5962 140.854 37.598 139.745 35.269 137.749 31.609 135.863 29.7235 130.207 25.7308 128.321 24.5108 128.543 24.3999 131.427 25.0654 133.312 25.509 136.307 25.8417 138.192 25.7308 142.629 25.509 148.174 29.169 152.388 35.269 156.492 41.0362 155.827 42.3671 151.501 37.0435Z" stroke="#5E53FD" stroke-width="0.110909" fill="#5E53FD" transform="matrix(1 0 0 -1.00357 26.0912 227.857)"/><path d="M182.999 38.3744C182.999 36.2671 190.652 25.0654 191.539 25.8417 191.761 26.0635 190.097 28.9472 187.879 32.2744 183.332 39.0398 182.999 39.4835 182.999 38.3744Z" stroke="#5E53FD" stroke-width="0.110909" fill="#5E53FD" transform="matrix(1 0 0 -1.00357 26.0912 227.857)"/><path d="M155.272 31.0544C152.61 29.2799 148.95 27.5053 147.287 27.1726 145.623 26.729 144.181 26.0635 144.181 25.509 144.181 23.1799 155.605 28.2817 159.043 32.0526 161.816 35.158 161.15 34.9362 155.272 31.0544Z" stroke="#5E53FD" stroke-width="0.110909" fill="#5E53FD" transform="matrix(1 0 0 -1.00357 26.0912 227.857)"/><path d="M179.672 31.2762C179.672 29.6126 188.323 23.7345 189.21 24.7326 189.765 25.2872 181.447 32.1635 180.337 32.1635 180.005 32.1635 179.672 31.8308 179.672 31.2762Z" stroke="#5E53FD" stroke-width="0.110909" fill="#5E53FD" transform="matrix(1 0 0 -1.00357 26.0912 227.857)"/><path d="M126.658 27.5053C124.772 26.2854 123.109 25.0654 123.109 24.9544 123.109 24.1781 129.763 26.8399 130.429 27.949 131.649 29.9453 130.207 29.8344 126.658 27.5053Z" stroke="#5E53FD" stroke-width="0.110909" fill="#5E53FD" transform="matrix(1 0 0 -1.00357 26.0912 227.857)"/></g></g></g><text fill="#5E53FD" font-family="Biome,Biome_MSFontService,sans-serif" font-weight="400" font-size="21" transform="translate(86.9998 318)">LEARN FOR FUTURE</text></g></svg>